# xmcd
#
# Track frame offsets:
#	150
#	18721
#	43883
#	63715
#	81338
#	104813
#	128706
#	141198
#
# Disc length: 2274 seconds
#
# Revision: 0
# Processed by: cddbd v1.5.2PL0 Copyright (c) Steve Scherf et al.
# Submitted via: EasyCDDAExtractor 10.0.3.1
#
DISCID=7b08e008
DTITLE=Ultramariini - Lasimeri
DYEAR=1900
DGENRE=
TTITLE0=Utopia
TTITLE1=Lasimeri taivaansini
TTITLE2=Impressionisti
TTITLE3=Avaruudessa
TTITLE4=Yksi
TTITLE5=Tähtitieteilijä
TTITLE6=Sointu
TTITLE7=Aurinko
EXTD=
EXTT0=
EXTT1=
EXTT2=
EXTT3=
EXTT4=
EXTT5=
EXTT6=
EXTT7=
PLAYORDER=
